<?xml version="1.0" encoding="UTF-8" standalone="no"?>
<svg
   xmlns:dc="http://purl.org/dc/elements/1.1/"
   xmlns:cc="http://creativecommons.org/ns#"
   xmlns:rdf="http://www.w3.org/1999/02/22-rdf-syntax-ns#"
   xmlns:svg="http://www.w3.org/2000/svg"
   xmlns="http://www.w3.org/2000/svg"
   xmlns:xlink="http://www.w3.org/1999/xlink"
   id="MontaineAtAldarra"
   preserveAspectRatio="xMidYMid meet"
   viewBox="0 0 5120.000000 5120.000000"
   height="5120.000000pt"
   width="5120.000000pt"
   version="1.1">
<!-- "id" can match in CSS with #NAME -->
<!-- Same "class" can be used on many elements, and matches ".name" in CSS -->
<!-- NOTES:
* unique ids are based on plat division + lot number
* king county parcel IDs do NOT map uniquely to a single lot
  e.g., 0098020750 maps to three distinct park in div3
  e.g., 0098030740 maps to two distinct lots in div4 (SE Duthie Hill road frontage)
* king county parcel IDs based on what was shown by King County Parcel Viewer as of 2020-03-23
* king county parcel IDs are not always searchable on King County
  e.g., 009803TR-Y gives error "Parcel number not found" ; this may be a bug in KC's search
-->

  <style
     type="text/css"
     id="style1110"><![CDATA[

.MontaineAtAldarra {
    background-color: #101010;
}

.OUTSIDE_MONTAINE {
   fill : #20b64a;
   fill-opacity : 1;
   stroke : none;
   stroke-width : 0
}

.LOT {
   fill : #cde1e2;
   fill-opacity : 1;
   stroke : #000000;
   stroke-width : 2;
   stroke-linecap : butt;
   stroke-linejoin : miter;
   stroke-miterlimit : 2.19875765;
   stroke-dasharray : none;
   stroke-opacity : 1;
}

.LOT:hover {
   fill : #00FF00;
   stroke-width : 10;
}

.TRACT {
   fill : #dddddd;
   fill-opacity : 1;
   stroke : #000000;
   stroke-width : 2;
   stroke-linecap : butt;
   stroke-linejoin : miter;
   stroke-miterlimit : 2.19875765;
   stroke-dasharray : none;
   stroke-opacity : 1;
}

.PARK {
   fill : #9fdf9e;
}

.PARK:hover {
   fill : #48c247;
}


    ]]></style>
  <g
     style="display:inline"
     id="layer7">
    <g
       transform="matrix(0.9961171,0,0,0.99527356,-198.51558,734.50275)"
       id="g8934"
       >
      <!-- style="fill:#cde1e2;fill-opacity:1;stroke:#000000;stroke-width:2.00864673;stroke-linecap:butt;stroke-linejoin:miter;stroke-miterlimit:2.19875765;stroke-dasharray:none;stroke-opacity:1"
       -->
      <!-- BEGIN Aldarra Division No. 3 -->
      <path class="LOT DIV3" id="div3_lot1" parcel="0098020010"
         d="m 3817.2307,618.22004 c -15.438,43.3016 -32.7586,85.4735 -51.2088,125.9511 -12.614,27.6754 -26.9223,56.1038 -42.3603,84.5322 l -334.1752,-145.9075 123.3154,-222.90893 129.1517,79.63723 z"
         />
      <path class="LOT DIV3" id="div3_lot2" parcel="0098020020"
         d="m 3723.6616,828.70334 c -33.3234,60.8105 -71.3534,121.9975 -107.1243,176.97156 l -323.0674,-149.67266 96.0165,-173.2064 z"
         />
      <path class="LOT DIV3" id="div3_lot3" parcel="0098020030"
         d="m 3616.5373,1005.6749 -323.0674,-149.67266 -96.5814,174.71236 310.4536,138.1885 0.3765,-0.5649 c 23.3451,-35.9591 64.1993,-94.5103 108.8187,-162.6633 z"
         />
      <path class="LOT DIV3" id="div3_lot4" parcel="0098020040"
         d="m 3507.3421,1168.9031 c -38.595,61.7518 -72.1066,119.3617 -99.4054,168.123 l -304.8055,-137.2471 93.7573,-169.0644 z"
         />
      <path class="LOT DIV3" id="div3_lot5" parcel="0098020050"
         d="m 3407.9367,1337.0261 c -35.9592,64.1994 -60.9988,113.1489 -72.2949,136.3059 -17.1323,27.1105 -40.6658,47.2551 -96.0165,32.1938 L 2994.689,1395.7657 3103.1312,1199.779 Z"
         />
      <path class="LOT DIV3" id="div3_lot6" parcel="0098020060"
         d="m 2994.689,1395.6716 108.4422,-195.9867 -300.6635,-135.4587 c -21.3684,40.9482 -43.6782,83.4968 -67.2116,128.3986 -20.2387,51.8678 1.0355,76.5308 26.4516,98.5582 z"
         />
      <path class="LOT DIV3" id="div3_lot7" parcel="0098020070"
         d="M 3196.7944,1030.6205 2891.8007,894.87944 c -28.805,54.0328 -58.1747,109.85416 -89.333,169.34676 l 300.6635,135.4587 z"
         />
      <path class="LOT DIV3" id="div3_lot8" parcel="0098020080"
         d="m 3293.564,855.90804 -96.7696,174.71246 -304.9937,-135.74106 c 32.7586,-61.4694 64.7641,-120.5855 97.8051,-179.8898 z"
         />
      <path class="LOT DIV3" id="div3_lot9" parcel="0098020090"
         d="M 3405.1126,654.36744 3076.209,510.15434 c -5.0833,33.5117 -14.4966,67.7764 -28.4285,102.6059 -19.9564,34.4531 -39.1597,68.3412 -58.1747,102.2294 l 303.8641,141.0126 z"
         />
      <path class="LOT DIV3" id="div3_lot10" parcel="0098020100"
         d="m 3313.238,-189.16609 0.1882,-2.44748 c -30.4052,-3.01228 -61.5635,-6.21283 -93.1925,-9.60165 -47.3493,-4.9891 -95.8282,-10.44886 -144.8719,-16.19102 L 3046.8392,34.778369 2943.6684,178.61491 c 19.7682,16.19102 34.4531,31.34657 44.9019,41.88955 0.4707,0.4707 0.9414,0.94132 1.3179,1.3179 12.8022,15.53205 24.1924,31.1583 34.1706,47.06692 l 175.089,-115.12571 66.7409,-67.776391 31.2524,-57.23338 z"
         />
      <path class="LOT DIV3" id="div3_lot11" parcel="0098020110"
         d="m 3073.6674,-202.15656 1.6944,-15.24968 c -5.3657,-0.65895 -10.8255,-1.31788 -16.2852,-1.88268 -59.4926,-6.96591 -119.8324,-14.30835 -179.984,-21.74493 l -27.5812,246.630719 -42.8309,103.264841 0.659,0.18828 c 43.8663,11.86086 79.1665,30.21696 107.2184,49.32614 9.9782,6.77764 18.9209,13.55527 27.1105,20.23878 L 3046.8392,34.778369 Z"
         />
      <path class="LOT DIV3" id="div3_lot12" parcel="0098020120"
         d="m 2923.8062,584.52014 c 2.9182,-4.895 5.8363,-9.884 8.7544,-14.7791 80.7669,-174.90065 -44.5252,-313.65396 -154.4736,-342.27066 -31.629,-6.21285 -63.258,-12.33153 -94.8869,-18.26197 l -77.0956,227.80395 z"
         />
      <path class="LOT DIV3" id="div3_lot13" parcel="0098020130"
         d="m 2822.6124,761.58594 -304.8996,-148.6374 88.3917,-175.93618 317.7017,147.50778 c -34.6412,59.0219 -68.3411,118.0438 -101.1938,177.0658 z"
         />
      <path class="LOT DIV3" id="div3_lot14" parcel="0098020140"
         d="m 2728.855,933.85084 -300.287,-143.5541 89.1448,-177.3482 304.8054,148.6374 z"
         />
      <path class="LOT DIV3" id="div3_lot15" parcel="0098020150"
         d="M 2339.4232,967.26834 2636.039,1114.023 c 30.1228,-59.775 61.187,-119.92646 93.0043,-180.07806 l -300.5694,-143.46 z"
         />
      <path class="LOT DIV3" id="div3_lot16" parcel="0098020160"
         d="m 2551.0362,1286.4763 c 27.5811,-57.1393 55.9155,-114.6551 85.0028,-172.4533 l -296.6158,-146.75466 -88.9565,176.50106 z"
         />
      <path class="LOT DIV3" id="div3_lot17" parcel="0098020170"
         d="m 2250.4667,1143.7694 -8.3779,16.5675 -80.2962,159.0862 303.3935,149.2963 c 27.8636,-60.3398 56.3862,-121.0562 85.8501,-182.2431 z"
         />
      <path class="LOT DIV3" id="div3_lot18" parcel="0098020180"
         d="m 2383.572,1649.4564 c 26.4516,-59.6808 53.6563,-120.0206 81.6141,-180.737 l -303.5818,-149.3904 -91.1215,176.4068 z"
         />
      <path class="LOT DIV3" id="div3_lot19" parcel="0098020190"
         d="m 2305.535,1829.3463 c 25.2279,-59.3044 51.303,-119.2677 78.037,-179.8899 l -313.0892,-153.7206 -91.2158,175.8421 z"
         />
      <path class="LOT DIV3" id="div3_lot20" parcel="0098020200"
         d="m 1979.267,1671.5779 326.268,157.7684 -1.9768,4.7067 c -11.5784,27.1105 -22.9687,54.0328 -34.2647,80.8609 -7.4366,16.1911 -18.5444,31.2524 -45.8432,41.4189 -22.5922,7.0601 -40.7599,16.5676 -55.3507,27.393 l -279.4834,-137.5296 0.094,-0.1882 z"
         />
      <path class="LOT DIV3" id="div3_lot21" parcel="0098020210"
         d="m 2168.0996,1983.7258 -279.4834,-137.5296 -163.5106,273.8354 385.1017,4.8009 c -2.3534,-16.5676 -2.2592,-33.7 0.2824,-50.6441 4.7067,-22.6862 17.9796,-61.187 57.6099,-90.4626 z"
         />
      <path class="LOT DIV3" id="div3_lot22" parcel="0098020220"
         d="m 1878.4497,2423.9898 271.1996,-215.5665 c -22.2156,-23.5335 -35.1119,-52.715 -39.442,-83.5908 l -385.1017,-4.8009 -23.4393,39.348 127.5514,224.6034 z"
         />
      <path class="LOT DIV3" id="div3_lot23" parcel="0098020230"
         d="m 2184.9495,2641.1566 -34.453,4.142 -272.0468,-221.2146 271.2938,-215.5665 c 12.4257,13.1787 28.0518,24.663 46.6904,33.6999 12.2374,5.2714 24.4748,8.8485 36.5239,11.1078 z"
         />
      <path class="LOT DIV3" id="div3_lot24" parcel="0098020240"
         d="m 2545.6705,2597.8551 -360.721,43.3015 48.0083,-387.8314 c 36.3357,6.7776 70.6004,0.1882 99.0288,-15.438 z"
         />
      <path class="LOT DIV3" id="div3_lot25" parcel="0098020250"
         d="m 2654.6775,2265.9391 -251.7139,-113.902 c -4.895,14.6849 -11.6726,27.8637 -19.5799,38.9715 -12.4256,18.4502 -29.1815,34.0764 -48.7613,45.3725 -0.9414,0.5647 -1.8827,0.9413 -2.6358,1.5061 l 213.6839,359.9679 65.5172,-123.1271 z"
         />
      <path class="LOT DIV3" id="div3_lot26" parcel="0098020260"
         d="M 2654.5834,2265.9391 2402.9636,2151.943 c 11.8609,-35.7709 11.8609,-80.6728 -13.8377,-128.681 -9.8841,-17.3207 -16.5675,-36.9005 -4.8008,-69.1884 3.1064,-7.5307 6.1187,-15.0614 9.2251,-22.5921 l 302.358,136.2117 z"
         />
      <path class="LOT DIV3" id="div3_lot27" parcel="0098020270"
         d="M 2771.7801,1884.5087 2471.493,1748.9559 c -26.8281,60.9988 -52.9974,121.9034 -77.9428,182.5256 l 302.358,136.2117 z"
         />
      <path class="LOT DIV3" id="div3_lot28" parcel="0098020280"
         d="m 2847.2754,1702.4538 -295.2979,-132.258 c -26.0751,57.1392 -51.8678,114.1843 -77.0957,171.1353 -1.1295,2.5416 -2.2592,5.0832 -3.3888,7.6248 l 300.2871,135.5528 z"
         />
      <path class="LOT DIV3" id="div3_lot29" parcel="0098020290"
         d="m 2931.1487,1500.066 -83.8733,202.3878 -295.2979,-132.258 c 19.2033,-41.9838 38.5007,-83.9675 57.7981,-125.9512 25.0397,-51.3971 66.1762,-52.2443 89.3331,-46.408 75.6837,32.8528 151.179,66.1761 226.6743,99.7819 z"
         />
      <path class="LOT DIV3" id="div3_lot30" parcel="0098020300"
         d="m 3164.4123,1844.5018 61.846,-133.1994 c 15.6263,-32.3821 0.1883,-76.7191 -33.0409,-93.1925 -87.2622,-39.6304 -174.6184,-79.0725 -262.0687,-118.0439 l -83.8733,202.3878 z"
         />
      <path class="LOT DIV3" id="div3_lot31" parcel="0098020310"
         d="m 3081.0098,2024.1092 0.1882,-0.2824 83.2143,-179.325 -317.1369,-142.048 -75.4953,182.0549 z"
         />
      <path class="LOT DIV3" id="div3_lot32" parcel="0098020320"
         d="m 2692.8018,2082.6605 3.1064,-14.9673 75.8719,-183.1845 309.2297,139.6005 -61.187,166.8052 c -1.0355,3.6712 -2.1651,7.3425 -3.2006,10.9195 z"
         />
      <path class="LOT DIV3" id="div3_lot33" parcel="0098020330"
         d="m 2963.5307,2393.3964 c 15.8145,-64.3876 34.5472,-127.928 53.0915,-191.5625 l -323.8204,-119.1734 -40.76,195.7984 z"
         />
      <path class="LOT DIV3" id="div3_lot34" parcel="0098020340"
         d="m 2917.1227,2586.9355 c 7.1542,-19.9564 13.7435,-41.2306 19.5799,-63.4462 6.9658,-43.8663 16.191,-87.168 26.9222,-130.0929 l -311.583,-114.8434 -40.8541,196.175 z"
         />
      <path class="LOT DIV3" id="div3_lot35" parcel="0098020350"
         d="m 2752.5768,2833.378 -206.9063,-235.5229 65.5172,-123.1271 305.935,112.2075 c -39.1597,109.9484 -97.3344,186.1968 -158.1448,243.242 -1.6944,1.5061 -3.3889,3.2005 -5.0833,4.7066 z"
         />
      <path class="LOT DIV3" id="div3_lot36" parcel="0098020360"
         d="m 2545.6705,2597.8551 -122.5623,14.6849 74.7423,370.8874 c 46.8787,-14.3084 92.063,-33.8882 135.741,-57.7982 37.8419,-24.6631 79.6373,-53.4681 120.3031,-90.7451 z"
         />
      <path class="LOT DIV3" id="div3_lot37" parcel="0098020370"
         d="m 2423.1082,2612.54 -121.6209,14.6849 -88.8624,372.5817 c 103.1707,17.8855 197.4929,10.1665 285.2256,-16.3792 z"
         />
      <path class="LOT DIV3" id="div3_lot38" parcel="0098020380"
         d="m 1936.8127,2881.3863 c 69.4708,51.9619 136.8706,83.5909 203.1409,101.8528 24.663,6.9659 48.9495,12.4257 72.6713,16.5675 l 88.8624,-372.5817 -150.9908,18.0737 z"
         />
      <path class="LOT DIV3" id="div3_lot39" parcel="0098020390"
         d="m 2150.4965,2645.2986 -213.6838,236.0877 c -9.6017,-7.3424 -19.3916,-15.0614 -29.1815,-23.1569 l -135.3645,-109.9484 218.3906,-233.0755 z"
         />
      <path class="LOT DIV3" id="div3_lot40" parcel="0098020400"
         d="m 1611.2978,2617.435 160.9689,130.846 218.3906,-233.0755 -161.722,-131.5991 z"
         />
      <path class="LOT DIV3" id="div3_lot41" parcel="0098020410"
         d="M 1829.1236,2383.6064 1611.2978,2617.435 1451.4585,2487.7185 1722.564,2196.0918 Z"
         />
      <path class="LOT DIV3" id="div3_lot42" parcel="0098020420"
         d="m 1722.4699,2195.9976 -271.0114,291.6267 -162.0985,-131.6932 245.5953,-263.1983 166.711,66.6468 z"
         />
      <path class="LOT DIV3" id="div3_lot43" parcel="0098020430"
         d="m 1162.2792,2409.3991 -182.43135,225.3564 147.97845,155.8857 h 0.1882 l 199.5639,-247.0072 z"
         />
      <path class="LOT DIV3" id="div3_lot44" parcel="0098020440"
         d="m 1327.5784,2543.634 -199.5639,247.0072 162.6633,134.7997 202.1996,-247.3837 z"
         />
      <path class="LOT DIV3" id="div3_lot45" parcel="0098020450"
         d="m 1492.8774,2678.0572 -202.1996,247.3837 164.5461,136.1176 201.823,-250.0196 z"
         />
      <path class="LOT DIV3" id="div3_lot46" parcel="0098020460"
         d="m 1657.0469,2811.5389 164.7342,133.8584 -201.8229,252.6553 v -0.1883 l -164.7343,-136.3058 z"
         />
      <path class="LOT DIV3" id="div3_lot47" parcel="0098020470"
         d="m 1821.7811,2945.3973 -201.8229,252.6553 103.9237,102.6059 67.9646,106.3712 199.9404,-349.8014 c -48.5731,-23.7217 -97.5227,-54.4094 -147.0371,-93.1925 z"
         />
      <path class="LOT DIV3" id="div3_lot48" parcel="0098020480"
         d="m 2154.0737,3113.3321 -49.1379,268.8463 -191.6565,194.104 -47.067,-52.5267 -74.3658,-116.726 199.9404,-349.8014 c 54.4093,26.5458 108.4422,44.4312 162.2868,56.1038 z"
         />
      <path class="LOT DIV3" id="div3_lot49" parcel="0098020490"
         d="m 2473.1874,3427.9275 c 1.3179,-3.9536 2.6358,-7.9073 3.7654,-11.8609 11.1078,-37.277 12.8022,-78.1311 3.7654,-123.3154 l -30.1229,-117.479 c -6.0246,-19.3916 -31.629,-45.5608 -65.1406,-46.1256 -68.7177,3.5771 -137.2472,1.3178 -206.1532,-10.9195 -8.472,-1.5062 -16.7558,-3.2006 -25.2278,-4.895 l -49.1379,268.8463 z"
         />
      <path class="LOT DIV3" id="div3_lot50" parcel="0098020500"
         d="m 2473.1874,3427.9275 c -9.9781,27.8636 -25.4161,53.6563 -45.5607,77.378 l -237.5939,223.662 c -4.3302,3.0123 -8.4721,5.6481 -12.614,8.4721 l -0.753,0.3765 -73.801,-50.4557 -160.0275,-77.9429 -29.558,-33.1351 191.6565,-194.104 z"
         />
      <path class="LOT DIV3" id="div3_lot51" parcel="0098020510"
         d="m 1592.2828,4209.2385 -197.8694,-4.5184 6.7776,-320.9965 197.6811,4.7067 z"
         />
      <path class="LOT DIV3" id="div3_lot52" parcel="0098020520"
         d="m 1788.8342,4213.757 -196.5514,-4.5185 6.5893,-320.8082 196.9281,4.5184 z"
         />
      <path class="LOT DIV3" id="div3_lot53" parcel="0098020530"
         d="m 1985.7623,4218.2753 -196.9281,-4.5183 6.966,-320.8083 197.1163,4.5185 z"
         />
      <path class="LOT DIV3" id="div3_lot54" parcel="0098020540"
         d="m 2360.6033,4222.6055 -269.9759,-1.8827 -104.8651,-2.4475 7.1542,-320.8081 54.2211,1.1296 c 24.0983,0 50.644,-2.4475 77.9428,-8.472 l 3.2005,-0.7531 c 15.0615,10.3547 30.3111,20.3329 44.0547,31.4407 l 133.4818,118.6086 55.7273,23.157 z"
         />
      <path class="LOT DIV3" id="div3_lot55" parcel="0098020550"
         d="m 2931.4311,3875.0633 -366.9338,-16.9441 -105.8065,-214.0604 c 17.8854,-16.9441 35.0178,-33.7 51.0206,-49.3261 27.6754,-29.9346 49.891,-61.3753 66.082,-96.5814 z"
         />
      <path class="LOT DIV3" id="div3_lot56" parcel="0098020560"
         d="m 3088.0698,3987.6474 -0.3765,-470.2928 -488.3665,-91.8746 c -5.4597,26.1692 -13.1787,50.2675 -23.3452,73.0478 l 355.2612,376.5355 z"
         />
      <path class="LOT DIV3" id="div3_lot57" parcel="0098020570"
         d="m 3087.6933,3517.3546 v -213.3073 l -81.7082,-128.2103 -399.5041,175.2772 c -0.1883,26.7341 -2.6358,51.3971 -7.3425,74.3658 z"
         />
      <path class="LOT DIV3" id="div3_lot58" parcel="0098020580"
         d="m 2806.7979,2952.928 199.1872,222.909 -399.5041,175.2772 c 0.1883,-19.5798 -0.7531,-40.2892 -3.0123,-62.1283 l -32.1938,-135.5528 c -2.2592,-36.3356 6.0246,-69.8473 60.8105,-89.992 59.8692,-28.2401 114.655,-61.94 163.9812,-101.4762 3.5771,-3.0123 7.1541,-6.0246 10.7313,-9.0369 z"
         />
      <path class="LOT DIV3" id="div3_lot59" parcel="0098020590"
         d="m 2806.7979,2952.928 c 51.397,-42.7368 96.2047,-92.2512 134.2348,-148.5432 29.3698,-38.2184 74.5541,-49.5144 132.5405,-6.7776 l 148.355,107.6891 -215.9431,270.5407 z"
         />
      <path class="LOT DIV3" id="div3_lot60" parcel="0098020600"
         d="m 3221.9282,2905.2963 94.6986,68.9059 c 47.6317,41.9838 89.992,89.8038 122.3741,149.2964 l -351.3076,180.5487 -81.7082,-128.2103 z"
         />
      <path class="LOT DIV3" id="div3_lot61" parcel="0098020610"
         d="m 3439.0009,3123.4986 -351.1194,180.5487 v 213.3073 l 416.0717,-123.6918 c -0.3765,-3.2006 -0.9413,-6.4011 -1.5061,-9.79 -2.6358,-108.0656 -26.3575,-191.8448 -63.4462,-260.3742 z"
         />
      <path class="LOT DIV3" id="div3_lot62" parcel="0098020620"
         d="m 3450.8617,3663.2621 -362.9802,107.6892 -0.1882,-253.5967 416.2599,-123.6918 c 3.0123,26.7339 -0.5648,53.6562 -32.382,80.955 -40.1011,43.8664 -39.348,69.0943 -43.4899,88.8624 l -0.1882,40.2893 c 4.8949,22.5922 12.6139,42.5485 22.9686,59.4926 z"
         />
      <path class="LOT DIV3" id="div3_lot63" parcel="0098020630"
         d="m 3531.0637,3726.5201 -3.3888,-1.5062 c -33.8881,-12.0491 -59.3043,-32.9468 -76.8132,-61.7518 l -362.9802,107.6892 0.1883,216.6961 49.1379,35.2061 269.0346,-81.8965 z"
         />
      <path class="LOT DIV3" id="div3_lot64" parcel="0098020640"
         d="m 3531.0637,3726.5201 c 10.1665,3.2005 21.0861,5.8363 32.7587,7.719 13.3669,0 26.734,0 40.2892,-1.8827 l -102.9824,248.5133 2.4475,250.2078 -353.5668,-2.6357 -12.8022,-205.5883 269.0346,-81.8965 z"
         />
      <path class="LOT DIV3" id="div3_lot65" parcel="0098020650"
         d="m 4071.5804,3197.8643 -454.1017,80.9552 c 5.0832,34.6412 7.9072,71.3534 8.0955,110.3248 0.1882,37.4653 24.2865,58.5512 51.0205,77.7545 26.3575,22.5922 42.5485,49.5145 49.5144,78.1312 l 294.4508,-73.4245 z"
         />
      <path class="LOT DIV3" id="div3_lot66" parcel="0098020660"
         d="m 4058.2134,3169.0594 13.367,28.8049 -454.1017,80.9552 c -9.6017,-65.3289 -27.4872,-123.3154 -51.7737,-175.2773 l 380.4891,-176.2186 z"
         />
      <path class="LOT DIV3" id="div3_lot67" parcel="0098020670"
         d="m 3767.9046,2713.075 96.5813,37.8417 81.7082,176.4069 -380.4891,176.2186 c -26.9223,-57.7982 -61.7518,-108.2539 -102.0411,-153.6265 z"
         />
      <path class="LOT DIV3" id="div3_lot68" parcel="0098020680"
         d="m 3484.7499,2601.9969 -181.6784,211.4248 c 31.4408,23.7216 63.0697,47.6316 94.1339,70.0355 23.3452,20.8978 45.5608,42.925 66.4585,66.4585 l 304.2407,-236.8407 z"
         />
      <path class="LOT DIV3" id="div3_lot69" parcel="0098020690"
         d="m 3432.4115,2437.0744 -383.8779,138.5651 -0.1883,0.753 c -6.7776,34.8296 0.9414,65.8938 40.101,89.6155 67.5882,36.5239 141.0126,91.8747 214.6252,147.4137 l 181.6784,-211.4248 -52.3384,-164.5459 z"
         />
      <path class="LOT DIV3" id="div3_lot70" parcel="0098020700"
         d="m 3421.3037,2270.6458 11.1078,166.4286 -383.8779,138.5651 c 25.6044,-116.726 48.5731,-233.6403 86.6032,-349.8015 z"
         />
      <path class="LOT DIV3" id="div3_lot71" parcel="0098020710"
         d="m 3754.161,1797.529 87.5445,-143.0835 -330.4098,-221.5911 -98.6523,187.5147 289.3675,197.4928 z"
         />
      <path class="LOT DIV3" id="div3_lot72" parcel="0098020720"
         d="m 3841.7055,1654.4455 -330.4098,-221.5911 c 3.9536,-7.5307 7.9072,-15.0614 11.8609,-22.5921 29.7462,-56.8568 62.1282,-111.4545 96.0165,-165.6756 l 333.6104,228.1804 z"
         />
      <path class="LOT DIV3" id="div3_lot73" parcel="0098020730"
         d="m 3952.7835,1472.7671 -333.6104,-228.1804 c 36.3357,-58.363 74.7423,-116.3495 114.0902,-176.9717 l 330.7864,223.0973 z"
         />
      <path class="LOT DIV3" id="div3_lot74" parcel="0098020740"
         d="M 4064.0497,1290.7123 3733.2633,1067.615 c 7.1542,-10.7312 14.1201,-21.6507 21.2743,-32.5703 52.5267,-75.87186 96.9578,-154.75596 135.3645,-238.15866 7.7189,-16.7558 15.0614,-33.6999 22.4038,-50.8322 l 240.4178,399.69226 z"
         />
      <!-- END Aldarra Division No. 3 -->
      <!-- BEGIN Aldarra Division No. 4 -->
      <path class="LOT DIV4" id="div4_lot1" parcel="0098030010"
         d="m 834.55224,-294.78428 -14.63782,264.516149 -495.09704,-7.24831 2.68282,-197.634039 z"
         />
      <path class="LOT DIV4" id="div4_lot2" parcel="0098030020"
         d="m 819.91442,-30.268131 -495.09704,-7.24831 -2.68281,198.010581 486.90739,6.5423 z"
         />
      <path class="LOT DIV4" id="div4_lot3" parcel="0098030030"
         d="m 809.04196,167.03644 -9.97818,180.68992 c -0.32947,5.41275 -0.65895,10.87245 -1.03548,16.33223 l -478.57655,-5.22443 2.68282,-198.34002 z"
         />
      <path class="LOT DIV4" id="div4_lot4" parcel="0098030040"
         d="m 798.0283,364.05859 -478.57655,-5.22443 -2.68281,196.69278 464.17406,5.8833 c 4.75376,-80.2962 13.13168,-140.7772 17.0853,-197.35165 z"
         />
      <path class="LOT DIV4" id="div4_lot5" parcel="0098030050"
         d="m 780.943,561.41024 c -0.94133,15.2497 -1.69441,31.2995 -2.30628,48.1024 l -1.22374,150.426 -463.37392,-6.4482 2.72988,-197.9635 z"
         />
      <path class="LOT DIV4" id="div4_lot6" parcel="0098030060"
         d="m 777.41298,759.93864 -463.37392,-6.4482 -2.68282,197.8693 464.36234,6.0716 z"
         />
      <path class="LOT DIV4" id="div4_lot7" parcel="0098030070"
         d="m 775.76564,957.47844 -1.69441,198.52826 -465.3978,-6.6834 2.72988,-197.96356 z"
         />
      <path class="LOT DIV4" id="div4_lot8" parcel="0098030080"
         d="m 774.07123,1156.0067 -465.3978,-6.6834 -2.63575,197.9634 466.43328,5.7422 z"
         />
      <path class="LOT DIV4" id="div4_lot9" parcel="0098030090"
         d="m 306.03768,1347.2867 466.43328,5.7422 -1.69441,198.999 -467.46876,-10.543 z"
         />
      <path class="LOT DIV4" id="div4_lot10" parcel="0098030100"
         d="m 770.77655,1552.0279 -467.46876,-10.543 -2.63574,199.5638 477.91761,3.4829 c -3.57709,-25.5103 -6.49524,-51.9619 -8.75445,-79.3548 z"
         />
      <path class="LOT DIV4" id="div4_lot11" parcel="0098030110"
         d="m 778.58966,1744.5316 c 6.77764,49.0438 15.81449,94.7928 26.92229,137.6237 l -509.829,223.6621 4.9891,-364.7687 z"
         />
      <path class="LOT DIV4" id="div4_lot12" parcel="0098030120"
         d="m 805.41781,1882.2495 c 13.08461,50.0792 28.80496,96.2989 46.78452,139.1298 L 586.08591,2323.2666 295.77709,2105.8174 Z"
         />
      <path class="LOT DIV4" id="div4_lot13" parcel="0098030130"
         d="M 974.48222,2226.7794 768.89387,2460.1372 586.08591,2323.2666 852.29647,2021.2852 c 33.41752,78.9783 75.02469,146.284 122.18575,205.4942 z"
         />
      <path class="LOT DIV4" id="div4_lot14" parcel="0098030140"
         d="M 1162.2792,2409.3991 979.84785,2634.7555 925.43848,2577.3339 768.988,2460.2313 974.57636,2226.7794 c 42.17194,53.0915 89.05064,99.7819 138.56504,142.5186 z"
         />
      <path class="LOT DIV4" id="div4_lot15" parcel="0098030150"
         d="m 1364.8553,3188.8275 c 87.9211,73.8009 164.1695,142.8952 242.4889,210.8598 l 123.6919,194.2923 h -84.5322 c -48.3848,-0.9413 -103.359,26.1692 -134.0466,85.097 -6.5894,13.367 -7.1542,16.3793 -10.3547,27.4871 -10.3548,35.3944 -40.4776,59.116 -83.7792,57.2334 l -62.3166,-1.5062 z"
         />
      <path class="LOT DIV4" id="div4_lot16" parcel="0098030160"
         d="m 1356.0068,3762.2909 -197.8694,-4.7067 7.719,-442.4291 197.1163,3.0123 z"
         />
      <path class="LOT DIV4" id="div4_lot17" parcel="0098030170"
         d="m 1162.4676,3513.0244 -4.3302,244.5598 -211.04813,-4.8949 c -30.49937,-0.5648 -92.25118,-36.7122 -92.62772,-102.0411 l 1.88267,-142.707 z"
         />
      <path class="LOT DIV4" id="div4_lot18" parcel="0098030180"
         d="m 1165.8564,3315.1551 -3.3888,197.8693 -306.12338,-5.0832 2.63575,-197.3046 z"
         />
      <path class="LOT DIV4" id="div4_lot19" parcel="0098030190"
         d="m 1362.9727,3318.1674 -503.99273,-7.5308 0.18827,-19.0149 c 0.37654,-62.6932 24.09827,-73.4245 56.48032,-86.7915 38.97141,-8.0955 73.23614,-24.4748 98.08744,-59.1161 16.191,-22.4038 30.6876,-47.6317 30.876,-98.8405 -3.9537,-48.1965 -23.3453,-86.0383 -52.90328,-111.2662 l 28.24018,-32.0055 c 9.9781,9.7899 19.7681,19.5798 29.3698,28.8049 106.1829,90.5568 208.6005,166.8052 315.3484,256.4207 h 0.1882 z"
         />
      <path class="LOT DIV4" id="div4_lot20" parcel="0098030200"
         d="m 286.26957,2794.03 6.58937,-483.0949 493.82623,352.6255 c 19.01504,19.3915 38.21835,39.3479 57.60992,59.4925 58.9278,60.9988 118.60866,123.6919 175.46551,180.9253 l -28.05188,31.629 c -24.09827,-20.5212 -54.97418,-32.5703 -89.42717,-34.8296 -22.40386,-0.3765 -41.60716,1.3179 -61.56355,8.8486 l -3.20055,-13.1787 -151.74378,-93.0043 z"
         />
      <path class="LOT DIV4" id="div4_lot21" parcel="0098030210"
         d="m 840.718,2909.6264 c -3.57708,1.3179 -7.15416,2.8241 -10.91952,4.5185 -0.75307,0.5648 -1.69441,0.9413 -2.63575,1.3179 -32.38205,16.3792 -61.75182,45.9372 -76.06016,87.1679 l -467.46875,-9.9782 2.63575,-198.6225 399.5041,9.4134 151.74378,93.0043 z"
         />
      <path class="LOT DIV4" id="div4_lot22" parcel="0098030220"
         d="m 751.10257,3002.6307 c -5.45977,15.4379 -8.84858,32.5703 -9.60166,51.0205 l -2.07094,146.8488 -458.4319,-10.5429 2.63575,-197.3046 z"
         />
      <path class="LOT DIV4" id="div4_lot23" parcel="0098030230"
         d="m 739.42997,3200.5 -2.82401,197.4929 -458.43191,-10.9196 2.82402,-197.1162 z"
         />
      <path class="LOT DIV4" id="div4_lot24" parcel="0098030240"
         d="m 736.60596,3397.9929 -2.82402,197.6811 -458.24363,-9.6017 2.63574,-198.999 z"
         />
      <path class="LOT DIV4" id="div4_lot25" parcel="0098030250"
         d="m 749.40816,3732.7329 c -0.37653,-0.7531 -0.5648,-1.3179 -0.75307,-2.071 -11.10779,-31.0641 -16.75583,-66.835 -15.24968,-107.6891 l 0.37653,-27.2988 -458.24363,-9.6017 -2.63575,197.3047 375.78237,8.472 z"
         />
      <path class="LOT DIV4" id="div4_lot26" parcel="0098030260"
         d="m 270.07854,3980.8697 393.10301,9.0369 125.3863,-192.5979 c -1.50615,-1.5061 -2.82402,-3.2005 -4.14189,-4.8949 -14.12008,-17.3207 -25.98095,-37.277 -34.64127,-60.0574 l -101.09976,59.4926 -375.78237,-8.472 z"
         />
      <path class="LOT DIV4" id="div4_lot27" parcel="0098030270"
         d="m 270.07854,3980.8697 -2.63575,198.0577 451.84254,10.3547 127.64551,-344.9064 c -21.83906,-12.0492 -41.60717,-27.6754 -58.36299,-47.067 l -125.3863,192.5979 z"
         />
      <path class="LOT DIV4" id="div4_lot28" parcel="0098030280"
         d="m 1000.5573,4195.6832 -281.27197,-6.4011 127.64551,-344.9064 c 28.24016,15.6262 59.4926,25.2279 91.68638,28.8049 l 68.90598,1.5062 z"
         />
      <path class="LOT DIV4" id="div4_lot29" parcel="0098030290"
         d="m 1197.8619,4200.2017 -197.3046,-4.5185 6.9659,-320.9964 197.1163,4.5184 z"
         />
      <path class="LOT DIV4" id="div4_lot30" parcel="0098030300"
         d="m 1394.4134,4204.7201 -196.5515,-4.5184 6.7776,-320.9965 196.5515,4.5184 z"
         />
      <path class="LOT DIV4" id="div4_lot31" parcel="0098030310"
         d="m 1328.9903,2010.4598 -194.8571,210.1068 c 15.438,15.9086 32.6645,32.9468 51.9619,51.4912 l 103.2649,83.8733 245.5953,-263.1983 z"
         />
      <path class="LOT DIV4" id="div4_lot32" parcel="0098030320"
         d="m 1328.9903,2010.4598 -194.8571,210.1068 c -115.4081,-118.7028 -130.4695,-169.9116 -183.74925,-277.6008 -3.67122,-10.4489 -7.24831,-20.7095 -10.73125,-30.97 l 16.94409,1.7885 18.54437,44.8077 115.03154,-30.2169 45.5608,-7.8132 194.6689,8.8486 z"
         />
      <path class="LOT DIV4" id="div4_lot33" parcel="0098030330"
         d="m 1133.8509,1920.4678 v 0.3766 l -43.6782,7.5307 -115.03154,30.2169 -18.54437,-44.8077 -16.94409,-1.7885 -0.0941,-0.3766 c -26.73402,-80.5785 -43.30158,-157.4859 -47.5376,-230.1573 1.50614,-55.2565 33.69992,-80.2961 79.91965,-82.2729 l 167.46415,7.4365 z"
         />
      <path class="LOT DIV4" id="div4_lot34" parcel="0098030340"
         d="m 1330.4024,1929.4105 -196.5515,-8.9427 5.5539,-313.8423 147.9784,6.6836 c 21.9332,2.8239 36.9005,12.1432 48.1024,25.1337 z"
         />
      <path class="LOT DIV4" id="div4_lot35" parcel="0098030350"
         d="m 1520.2703,1744.8141 c -55.7271,11.7667 -129.6222,-2.1651 -173.9593,-90.7451 -3.2006,-5.5539 -6.7776,-10.8254 -10.8254,-15.6262 l -6.4953,372.017 267.0579,106.7478 z"
         />
      <path class="LOT DIV4" id="div4_lot36" parcel="0098030360"
         d="m 1725.1056,2120.0316 113.8079,-190.5269 -239.1942,-231.3811 c -8.1896,9.1311 -17.3206,17.5089 -27.2988,25.4162 -5.5539,3.7654 -11.955,7.3424 -19.1091,10.543 -9.7899,4.4243 -20.9919,8.1897 -33.0411,10.7313 l 75.7779,372.3935 105.6181,42.172 z"
         />
      <path class="LOT DIV4" id="div4_lot37" parcel="0098030370"
         d="m 1888.7103,1846.008 151.0848,-291.1561 -402.6105,64.2934 c -0.7531,5.1774 -1.6944,10.2606 -2.9181,15.2497 -6.2128,24.9455 -18.3562,45.7491 -34.5472,63.7286 l 239.1942,231.3811 z"
         />
      <path class="LOT DIV4" id="div4_lot38" parcel="0098030380"
         d="m 2162.6398,1319.7997 -0.753,-0.3766 -122.0917,235.4288 -402.6105,64.2934 c 2.071,-15.1555 2.1651,-31.629 -0.1882,-49.8909 -3.3888,-12.6139 -7.5308,-24.4748 -12.5199,-35.5826 l 94.6987,-144.119 z"
         />
      <path class="LOT DIV4" id="div4_lot39" parcel="0098030390"
         d="m 1722.1875,1189.4243 -3.0123,200.1285 -94.6987,144.119 c -19.1091,-42.4544 -50.9264,-72.8597 -103.3589,-83.685 l 3.2006,-266.3988 z"
         />
      <path class="LOT DIV4" id="div4_lot40" parcel="0098030400"
         d="m 1524.3182,1183.588 -3.2006,266.3988 c -15.8145,-3.2006 -33.4175,-4.7067 -53.1856,-4.1419 -20.9919,5.5539 -33.5117,2.0709 -80.9552,35.865 -10.7312,6.6835 -21.9331,12.9905 -44.4312,11.7667 l -21.6508,-0.9413 5.7423,-314.7837 z"
         />
      <path class="LOT DIV4" id="div4_lot41" parcel="0098030410"
         d="m 1326.6371,1177.7516 -5.7423,314.7837 -194.2922,-8.7545 4.1418,-311.8654 z"
         />
      <path class="LOT DIV4" id="div4_lot42" parcel="0098030420"
         d="m 1130.7444,1171.9154 -226.67431,-6.6835 -3.76535,242.3947 c 0.0941,20.9918 18.63851,64.1051 65.14063,68.9059 l 161.15723,7.2483 z"
         />
      <path class="LOT DIV4" id="div4_lot43" parcel="0098030430"
         d="m 1134.9804,860.04994 -149.57865,-6.5894 c -40.8541,-0.7531 -74.55402,31.1583 -77.5663,67.2116 l -3.76536,244.55976 226.67431,6.6835 z"
         />
      <path class="LOT DIV4" id="div4_lot44" parcel="0098030440"
         d="m 1332.1909,868.80444 -197.2105,-8.7545 -4.236,311.86546 195.8927,5.8362 z"
         />
      <path class="LOT DIV4" id="div4_lot45" parcel="0098030450"
         d="m 1528.0835,877.55884 -195.8926,-8.7544 -5.5538,308.94716 197.6811,5.8364 z"
         />
      <path class="LOT DIV4" id="div4_lot46" parcel="0098030460"
         d="m 1722.1875,1189.4243 3.6712,-245.78346 c -4.236,-5.8364 -8.2838,-12.2375 -11.955,-19.1092 -17.2265,-29.4639 -38.9714,-38.1242 -61.8459,-41.5131 l -123.9743,-5.4597 -3.7653,306.02916 z"
         />
      <path class="LOT DIV4" id="div4_lot47" parcel="0098030470"
         d="m 1970.8892,1350.0166 -78.2253,-349.4249 c -3.9536,1.3179 -8.1897,2.4475 -12.4257,3.483 -16.8499,3.9536 -38.7831,4.5184 -61.6576,-0.3765 -32.7586,-7.06006 -67.494,-25.03966 -92.7219,-60.05736 l -6.6835,445.91196 z"
         />
      <path class="LOT DIV4" id="div4_lot48" parcel="0098030480"
         d="m 1969.9478,947.02964 c -16.8499,22.0273 -41.7954,42.3602 -77.2839,53.56206 l 78.2253,349.4249 190.7151,-30.0287 0.4707,-0.8472 70.5063,-140.0712 z m 191.939,372.39346 0.753,0.3766 -1.0355,0.1882"
         />
      <path class="LOT DIV4" id="div4_lot49" parcel="0098030490"
         d="m 2250.4667,1143.7694 134.988,-267.90496 -385.2899,-27.393 c 0.2824,8.4721 -0.094,16.7558 -0.9414,24.6631 -0.3765,17.9796 -8.7544,47.161 -29.2756,73.8951 l 262.6335,232.03986 z"
         />
      <path class="LOT DIV4" id="div4_lot50" parcel="0098030500"
         d="m 2000.1648,848.47144 385.2899,27.393 43.1133,-85.5677 89.1448,-177.3482 -175.0891,-85.3794 -356.3907,261.598 c 9.2251,19.5798 13.1787,40.0069 13.9318,59.3043 z"
         />
      <path class="LOT DIV4" id="div4_lot51" parcel="0098030510"
         d="m 1913.7499,718.00194 c 2.9182,1.2237 5.7421,2.4475 8.6603,3.8595 32.0996,18.7326 52.056,42.3602 63.8228,67.3057 l 356.3907,-261.598 -149.7669,-73.04788 -179.8898,-24.09825 h -13.7436 z"
         />
      <path class="LOT DIV4" id="div4_lot52" parcel="0098030520"
         d="m 1913.7499,718.00194 c -1.2237,-0.5648 -2.4475,-1.0355 -3.6712,-1.6003 -51.0205,-20.5211 -103.9238,-19.6739 -160.2158,23.0628 -7.8131,6.6835 -15.3439,11.7667 -22.5922,15.438 l 13.6494,-324.19705 258.3033,-0.28238 z"
         />
      <path class="LOT DIV4" id="div4_lot53" parcel="0098030530"
         d="m 1740.8731,430.65829 -197.9636,0.18832 -13.7905,323.63223 164.8283,7.06 c 10.3547,1.2237 21.4155,-0.706 33.3234,-6.6835 z"
         />
      <path class="LOT DIV4" id="div4_lot54" parcel="0098030540"
         d="m 1542.9095,430.84661 -197.1633,0.18825 -13.6023,315.01898 196.9751,8.425 z"
         />
      <path class="LOT DIV4" id="div4_lot55" parcel="0098030550"
         d="m 1345.7462,431.03486 -198.2459,0.18825 -14.5437,306.31153 199.1873,8.5192 z"
         />
      <path class="LOT DIV4" id="div4_lot56" parcel="0098030560"
         d="m 1147.5003,431.22311 h -35.9592 l -184.17287,-13.36702 -0.0941,0.8472 c -9.31925,85.52065 -16.19102,170.90005 -16.09689,237.59395 -1.45907,39.8185 38.12422,76.7191 65.8937,74.554 l 155.88566,6.6834 z"
         />
      <path class="LOT DIV4" id="div4_lot57" parcel="0098030570"
         d="m 1172.1633,431.17609 -60.6222,0.0472 -184.17287,-13.36703 c 9.08392,-83.40255 20.52118,-166.8993 30.12283,-233.35782 12.42567,-55.96257 64.62284,-63.86982 88.48584,-59.68086 47.1139,5.45976 71.0239,0.61187 101.0998,-1.31787 13.6964,-1.08255 27.3929,-2.16508 41.0423,-3.15348 z"
         />
      <path class="LOT DIV4" id="div4_lot58" parcel="0098030580"
         d="m 1380.0109,430.98776 -207.8476,0.18833 15.9557,-310.83004 c 69.0472,-5.1303 137.4355,-9.08392 205.2119,-11.86087 z"
         />
      <path class="LOT DIV4" id="div4_lot59" parcel="0098030590"
         d="m 1585.1286,430.79951 -205.1177,0.18825 13.32,-322.50258 c 69.9414,-2.82402 139.2239,-4.37722 207.8005,-4.65963 z"
         />
      <path class="LOT DIV4" id="div4_lot60" parcel="0098030600"
         d="m 1791.4229,430.61126 -206.2943,0.18825 16.0028,-326.97396 c 68.7648,-0.32946 136.8706,0.65894 204.2704,2.91816 z"
         />
      <path class="LOT DIV4" id="div4_lot61" parcel="0098030610"
         d="m 1791.47,430.61126 13.9318,-323.82049 c 33.3234,1.12961 66.4586,2.54161 99.4054,4.33016 35.1119,1.69441 69.9415,3.85949 104.4886,6.4011 l 3.0123,0.18827 -13.0847,312.71271 v 0 z"
         />
      <path class="LOT DIV4" id="div4_lot62" parcel="0098030620"
         d="m 2235.2171,139.26695 c -73.3303,-8.75445 -147.5079,-16.00275 -222.909,-21.55665 l -13.0847,312.71271 v 0 h 13.7436 l 179.8898,24.09825 z"
         />
      <path class="LOT DIV4" id="div4_lot63" parcel="0098030630"
         d="m 2386.396,548.84334 -193.5392,-94.32208 42.3603,-315.25431 c 72.2006,8.56618 143.6482,18.45024 214.4369,29.55804 z"
         />
      <path class="LOT DIV4" id="div4_lot64" parcel="0098030640"
         d="m 2606.1045,437.01236 77.0956,-227.80395 c -77.4722,-14.59075 -155.1326,-28.14603 -233.5461,-40.38342 l -63.258,380.01835 131.3168,64.1052 z"
         />
      <path class="LOT DIV4" id="div4_lot65" parcel="0098030650"
         d="m 2808.6805,108.86171 c -7.4365,-1.50613 -14.779,-3.01227 -22.2156,-4.51842 -46.7845,-9.413381 -93.9456,-18.450241 -141.2949,-26.922281 l 37.8418,-342.082449 c 57.9865,6.6835 115.4081,13.64941 172.6415,20.70945 l 5.7422,0.75307 c 5.9304,0.75307 11.7667,1.41201 17.6971,2.16507 L 2851.5114,5.596869 Z"
         />
      <path class="LOT DIV4" id="div4_lot66" parcel="0098030660"
         d="m 2645.17,77.421009 c -64.5758,-11.57847 -129.6223,-22.30973 -195.3277,-32.00552 l 35.7708,-331.539449 c 66.7409,6.6835 132.3522,13.93181 197.3987,21.46252 z"
         />
      <path class="LOT DIV4" id="div4_lot67" parcel="0098030670"
         d="m 2449.8423,45.415489 c -64.8583,-9.50752 -130.2814,-18.16783 -196.3633,-25.69854 l 36.618,-323.820479 c 66.3645,5.45976 131.4109,11.48433 195.5161,17.97957 z"
         />
      <path class="LOT DIV4" id="div4_lot68" parcel="0098030680"
         d="M 2253.479,19.716949 C 2188.9973,12.374509 2123.9508,6.067539 2058.1512,0.79604897 L 2075.9426,-319.16495 c 73.0478,4.23603 144.3072,9.31926 214.1544,15.06142 z"
         />
      <path class="LOT DIV4" id="div4_lot69" parcel="0098030690"
         d="m 2075.9426,-319.16495 c -67.3999,-3.85948 -136.4,-7.06004 -207.2828,-9.41338 l -7.4366,317.136969 c 66.3644,3.01229 131.9757,7.06005 196.928,12.23740997 z"
         />
      <path class="LOT DIV4" id="div4_lot70" parcel="0098030700"
         d="m 1861.2232,-11.441361 c -65.0465,-2.91815 -130.8461,-4.70669 -197.3045,-5.27149 l 8.0955,-314.218829 c 47.6317,0.2824 95.0751,0.65894 142.801,0.75307 18.0737,0.47067 36.0533,0.94134 53.8446,1.60028 z"
         />
      <path class="LOT DIV4" id="div4_lot71" parcel="0098030710"
         d="m 1663.8716,-16.759921 c -64.9995,-0.61187 -130.7049,-0.047 -197.1634,1.6944 l 7.8602,-315.772029 c 66.3644,-0.80014 131.9756,-0.51773 197.4458,-0.1412 z"
         />
      <path class="LOT DIV4" id="div4_lot72" parcel="0098030720"
         d="m 1474.5684,-330.83755 c -64.9994,0.80014 -130.7049,2.63575 -197.7753,6.30697 l -7.6719,318.125379 c 66.5527,-4.09482 132.4464,-6.9659 197.587,-8.66032 z"
         />
      <path class="LOT DIV4" id="div4_lot73" parcel="0098030730"
         d="m 1269.1212,-6.405201 c -49.8909,3.05936 -100.1584,6.82470997 -150.8495,11.29607 -46.1256,1.08253 -84.4852,-22.7804 -88.2976,-80.15499 12.1904,-76.389619 20.0034,-155.367929 25.1808,-235.899449 l 0.094,-1.69441 166.9465,-8.28378 c 18.309,-1.27081 36.5239,-2.40041 54.5976,-3.38882 z"
         />
      <!-- END Aldarra Division No. 4 -->
      <!-- BEGIN Aldarra Tracts -->
      <path class="TRACT PARK" id="tract_ab" parcel="0098020750"
         d="m 2564.4973,3858.1192 v 0 l -63.6345,70.7887 -123.1271,-28.805 -97.8992,-87.5445 c 4.7066,-3.9536 9.4133,-8.2837 14.12,-12.6139 2.2593,-2.0709 4.5185,-4.1419 6.7777,-6.4011 48.3848,-45.7491 105.8064,-99.4053 157.9566,-149.4846 z m 0,0 -105.8065,-214.0604"
         />
      <path class="TRACT"      id="tract_ac" parcel="009802TRAC"
         d="m 3137.2077,4022.8535 -205.7766,-147.7902 -366.9338,-16.9441 -63.6345,70.7887 -123.1271,-28.805 -97.8992,-87.5445 c -18.0737,15.6263 -35.3944,28.0519 -54.5977,38.7832 -31.4406,18.4502 -64.764,30.6876 -96.9579,38.0301 15.0615,10.3547 30.3111,20.3329 44.0547,31.4407 l 133.4818,118.6086 55.7273,23.157 -0.9414,160.0275 789.4066,5.8363 z"
         />
      <path class="TRACT"      id="tract_ad" parcel="0098020770"
         d="m 5007.6702,5335.2561 -10.794,354.4453 50.7068,267.3402 -387.3295,393.103 -341.6431,-2.5103 -3.2633,-333.6104 137.3099,-331.6022 c 1.0041,0 2.2592,-0.251 3.2633,-0.251 44.4312,-7.0287 89.3644,-28.3657 134.5487,-92.8787 27.8636,-49.9537 37.4025,-104.9279 24.8513,-156.3877 z"
         transform="matrix(0.75000002,0,0,0.75000002,264.61878,-529.64826)"
         />
      <path class="TRACT"      id="tract_an" parcel="0098020780"
         d="m 3313.4262,-191.61357 9.5076,-128.58685 h -0.9414 c -11.3901,-0.75307 -23.0628,-1.60028 -34.9236,-2.63575 -105.9948,-8.66032 -231.8517,-26.16921 -393.5737,-45.09012 l -0.2824,-0.0941 -14.1201,126.98657 c 60.1516,7.43658 120.4914,14.77902 179.984,21.74493 5.4597,0.5648 10.9195,1.22373 16.2852,1.88268 49.0437,5.74216 97.5226,11.20192 144.8719,16.19102 31.629,3.38882 62.7873,6.58937 93.1925,9.60165 z"
         />
      <path class="TRACT"      id="tract_ar" parcel="009802TRAR"
         d="m 2176.6658,3737.8161 c -84.344,54.0329 -134.0466,36.9005 -240.6062,37.0888 l -85.2853,-41.6072 c -41.7954,-48.0082 -105.6181,-113.3371 -119.7382,-139.3181 l 127.8337,-81.8965 7.3425,11.6726 76.625,85.6618 160.0275,77.9429 z"
         />
      <path class="TRACT"      id="tract_o" parcel="0098030740"
         d="m 329.10047,-352.67661 429.10921,-51.30294 c 43.63105,-3.34176 81.23752,37.37114 78.1311,76.38962 l -1.78854,32.80565 -507.05204,59.6338 z"
         />
      <path class="TRACT"      id="tract_q" parcel="0098030740"
         d="m 2879.0926,-241.03385 14.1201,-126.98657 c -1.5061,-0.18827 -3.1064,-0.37654 -4.7067,-0.5648 -188.4559,-21.93319 -792.5129,-85.66182 -986.5229,-81.33166 -233.2636,5.17736 -501.6393,-3.20055 -783.382,14.21421 -46.8786,7.90725 -66.6467,65.42304 -60.1515,66.83504 -0.9413,18.73264 -1.9768,37.46528 -3.2005,56.00965 l 166.9935,-8.28378 c 18.2619,-1.22374 36.5238,-2.35334 54.5976,-3.38882 67.0233,-3.67122 132.7288,-5.45976 197.6811,-6.30697 66.4585,-0.75307 132.0698,-0.5648 197.4929,-0.0941 47.6317,0.2824 95.0751,0.65894 142.801,0.75307 18.0737,0.47067 36.0533,0.94134 53.8446,1.60028 70.8828,2.35334 139.8829,5.5539 207.2828,9.41338 73.0478,4.23603 144.3072,9.31926 214.1544,15.06142 66.3645,5.45976 131.4109,11.48433 195.5161,17.97957 66.7409,6.6835 132.3522,13.93181 197.3987,21.46252 57.9865,6.6835 115.4081,13.64941 172.6415,20.70945 l 5.7422,0.75307 c 5.9304,0.75307 11.7667,1.41201 17.6971,2.16507 z"
         />
      <path class="TRACT"      id="tract_s" parcel="009802TRCT"
         d="M 3512.8018,459.88691 3405.1126,654.36744 3076.209,510.15434 c 12.4256,-84.72048 -4.3302,-165.29905 -52.1502,-241.17093 l 175.089,-115.21984 66.835,-67.776391 31.2524,-57.23338 25.7927,-348.860089 c 382.1835,24.85134 475.7525,-0.75307 486.6721,3.76536 34.2647,3.01228 62.6932,16.75583 73.4244,64.19929 5.2715,118.60866 14.4966,474.24637 9.9782,471.98718 -0.9414,134.04665 -30.1228,268.8463 -74.3658,394.0444 -0.3765,1.5061 -0.9413,2.8239 -1.5061,4.3301 l -175.2772,-78.6959 z"
         />
      <path class="TRACT PARK" id="tract_u" parcel="0098020750"
         d="M 4620.569,414.51439 4474.2851,269.73648 4251.376,246.76781 4025.6431,398.69989 c 8.472,-33.88823 16.7558,-68.7177 24.663,-104.30033 31.8173,-142.14213 52.3385,-183.56103 55.1625,-436.02804 l -3.7654,-137.05891 c 1.3179,-28.99323 6.9659,-57.23338 57.0451,-76.62496 l 936.6319,-171.32363 -15.0614,16.9441 -68.7177,165.29905 5.8363,186.38505 22.7804,82.837799 -87.921,125.3863 -42.172,126.139371 -10.9195,72.29484 -67.5881,166.24036 -202.1995,8.28382 z"
         />
      <path class="TRACT"      id="tract_w" parcel="0098020760"
         d="m 3841.7055,1654.4455 311.0182,-508.6994 -240.4178,-399.69226 c 44.0546,-104.1121 79.8255,-215.7548 110.8897,-337.94055 l 2.4475,-9.4134 225.7329,-151.93208 222.9091,22.96867 146.2839,144.77791 -165.299,-69.84735 -185.8202,-19.57988 -165.1108,112.58415 -97.3344,279.20103 61.94,171.7001 72.6713,120.67966 60.8106,44.9959 26.9223,40.1011 -30.1229,114.655 160.9689,299.3457 -132.3522,115.9729 -98.8405,5.2715 -166.8053,87.168 -208.0358,80.7668 z"
         />
      <path class="TRACT"      id="tract_y" parcel="009803TR-Y"
         d="m 1815.5683,3444.3067 -91.6864,-143.6482 -103.9237,-102.7942 -492.1319,-407.2231 -202.38782,-213.3073 -629.75553,-471.6106 -2.82401,205.2118 493.82623,352.6255 c 17.32063,17.8854 35.0178,35.9591 52.71496,54.4093 60.81048,63.0697 122.56229,128.022 180.54877,185.632 9.9781,9.7899 19.7681,19.5798 29.3698,28.8049 106.1829,90.5568 208.6005,166.8052 315.3484,256.4207 h 0.1882 c 87.9211,73.8009 164.1695,142.8952 242.4889,210.8598 l 123.6919,194.2923 127.8337,-81.8965 z"
         />
      <path class="TRACT PARK" id="tract_z" parcel="0098020750"
         d="m 3702.0109,1817.8619 -152.1204,58.9278 -139.5063,229.6867 10.9195,164.1694 -286.1669,-44.8078 c 6.4011,-19.5798 13.3669,-39.1596 20.7094,-58.5512 87.1679,-213.1191 175.0889,-389.9024 256.7972,-546.9177 z"
         />
      <!-- END Aldarra Tracts -->
    </g>
  </g>
</svg>
